<?xml version="1.0" encoding="UTF-8"?>
<svg id="_图层_2" data-name="图层_2" xmlns="http://www.w3.org/2000/svg" viewBox="0 0 1302.33 778.43">
  <defs>
    <style>
      .cls-1 {
        fill: #ccc;
      }

      .cls-2 {
        fill: #f19465;
      }
    </style>
  </defs>
  <g id="_注册" data-name="注册">
    <g>
      <path class="cls-2" d="M87.13,16.68c3.69-1.03,7.32-2.02,10.9-3.08,2.1-.62,5.58-1.5,7.73-1.97l10.95-2.42C159.37-.2,203.51-1.43,246.48,6.44c1.48.27,2.96.55,4.43.84,159.94,31.57,245.1,164.69,245.1,379.27,0,246.38-113.24,391.87-320.07,391.87h0C78.77,778.43,0,699.66,0,602.48V131.43C0,77.96,35.62,31.01,87.13,16.68ZM166.28,698.25c8.24,0,16.36-2.03,23.64-5.9,119.33-63.51,230.42-114.66,230.42-305.26s-102.29-181.97-227.46-293.96c-9.28-8.3-21.25-12.96-33.7-12.96h-1.16c-31.38,0-56.82,25.44-56.82,56.82v504.44c0,31.38,25.44,56.82,56.82,56.82h8.26Z"/>
      <path class="cls-1" d="M937.58,0h313.04c22.87,0,41.42,18.54,41.42,41.42h0c0,22.87-18.54,41.42-41.42,41.42h-226.01c-22.87,0-41.42,18.54-41.42,41.42v161.42c0,22.87,18.54,41.42,41.42,41.42h177.34c22.87,0,41.42,18.54,41.42,41.42v13.95c0,15.75-12.77,28.53-28.53,28.53h-190.23c-22.87,0-41.42,18.54-41.42,41.42v200.71c0,22.87,18.54,41.42,41.42,41.42h236.3c22.87,0,41.42,18.54,41.42,41.42v1.06c0,22.87-18.54,41.42-41.42,41.42h-323.34c-22.87,0-41.42-18.54-41.42-41.42V41.42C896.16,18.54,914.7,0,937.58,0Z"/>
      <g>
        <path class="cls-1" d="M505.23,771.77v-116.28c0-1.84.78-3.59,2.14-4.82l180.27-163.01c38.86-35.44,70.61-58.82,109.23-96.49,1.25-1.22,1.96-2.91,1.96-4.66h0c0-1.79-.74-3.51-2.04-4.74-38.58-36.36-70.32-61.07-109.15-96.48l-180.25-161.63c-1.38-1.23-2.16-2.99-2.16-4.84V6.66c0-5.73,6.87-8.66,11.01-4.69l323.78,310.5c1.28,1.23,2,2.92,2,4.69v142.78c0,1.77-.72,3.46-1.99,4.68l-323.78,311.83c-4.13,3.98-11.02,1.05-11.02-4.68Z"/>
        <rect class="cls-1" x="738.54" y="330.99" width="75.59" height="129.13"/>
      </g>
    </g>
  </g>
</svg>